<svg xmlns="http://www.w3.org/2000/svg" width="53.086" height="53.065" viewBox="0 0 53.086 53.065">
  <g id="Group_16856" data-name="Group 16856" transform="translate(-859.89 -1164.522)">
    <path id="Path_11733" data-name="Path 11733" d="M-1787.664,2600.374q0,3.379,0,6.757a19.827,19.827,0,0,1-15.225,19.16,24.2,24.2,0,0,1-5.02.547c-4.416.07-8.834.042-13.251.005a19.713,19.713,0,0,1-18.635-14.173,24.073,24.073,0,0,1-.855-5.848c-.125-4.355-.044-8.716-.038-13.074a19.991,19.991,0,0,1,16-19.534,20.953,20.953,0,0,1,3.827-.369c4.446-.044,8.893-.027,13.339-.015a19.959,19.959,0,0,1,19.426,15.712,27.188,27.188,0,0,1,.423,4.689c.069,2.045.017,4.095.017,6.142Zm-23.375-.039h-.061c0,3.219.008,6.437,0,9.656a6.983,6.983,0,0,0,3.29,6.2c1.678,1.114,3.57,1.141,5.479,1.106a7.27,7.27,0,0,0,7.147-7.568c-.11-6.406-.022-12.815-.034-19.223a6.9,6.9,0,0,0-5.519-6.844,17.28,17.28,0,0,0-4.1-.164,6.842,6.842,0,0,0-6.181,6.221C-1811.115,2593.253-1811.039,2596.795-1811.039,2600.334Zm-14.009,2.819c-.4,0-.718,0-1.04,0a7.176,7.176,0,0,0-6.858,5.571,7.084,7.084,0,0,0,3.857,7.855,10.405,10.405,0,0,0,5.487.639,7.025,7.025,0,0,0,5.384-10.613A7.126,7.126,0,0,0-1825.048,2603.154Zm-.042-19.7c-.445,0-.826-.01-1.206,0a7.005,7.005,0,0,0-6.789,6.432,6.855,6.855,0,0,0,4.93,7.267,15.709,15.709,0,0,0,3.974.363,7.016,7.016,0,0,0,6.03-10.519A6.989,6.989,0,0,0-1825.09,2583.451Z" transform="translate(2700.608 -1409.295)" fill="#fff"/>
    <path id="Path_11737" data-name="Path 11737" d="M-1648.925,2698.828c.906,0,1.813-.01,2.719,0a1.857,1.857,0,0,1,2,1.859,1.905,1.905,0,0,1-1.931,1.952c-.845.046-1.695.012-2.543.012-.935,0-1.871.021-2.806-.006a1.93,1.93,0,0,1-2.087-1.979,1.9,1.9,0,0,1,2.109-1.841C-1650.62,2698.822-1649.773,2698.828-1648.925,2698.828Z" transform="translate(2546.326 -1512.353)" fill="#fff"/>
    <path id="Path_11738" data-name="Path 11738" d="M-1648.875,2729.753c.964,0,1.928-.018,2.891.005a1.75,1.75,0,0,1,1.776,1.854,1.756,1.756,0,0,1-1.8,1.835q-2.892.023-5.783,0a1.813,1.813,0,0,1-1.789-1.857,1.785,1.785,0,0,1,1.809-1.833C-1650.8,2729.736-1649.839,2729.753-1648.875,2729.753Z" transform="translate(2546.324 -1537.846)" fill="#fff"/>
    <path id="Path_11739" data-name="Path 11739" d="M-1773.954,2774.112c-.934,0-1.868.014-2.8,0a1.8,1.8,0,0,1-1.864-1.781,1.754,1.754,0,0,1,1.774-1.955c1.925-.048,3.853-.052,5.778,0a1.736,1.736,0,0,1,1.76,2.034,1.786,1.786,0,0,1-1.931,1.7C-1772.144,2774.12-1773.049,2774.112-1773.954,2774.112Z" transform="translate(2649.414 -1571.308)" fill="#fff"/>
    <path id="Path_11740" data-name="Path 11740" d="M-1771.078,2644.964c-.34-.01-.681-.016-1.022-.022-.006-.337-.011-.674-.019-1.011a1.755,1.755,0,0,0-1.955-1.774,1.8,1.8,0,0,0-1.781,1.864c-.006.306-.008.613-.008.919-.331.005-.662.01-.993.019a1.755,1.755,0,0,0-1.774,1.955,1.8,1.8,0,0,0,1.864,1.781c.3.006.6.008.906.008,0,.278,0,.556,0,.834a1.787,1.787,0,0,0,1.7,1.931,1.736,1.736,0,0,0,2.035-1.76c.01-.336.016-.672.022-1.008.284,0,.568,0,.853,0a1.787,1.787,0,0,0,1.931-1.7A1.736,1.736,0,0,0-1771.078,2644.964Z" transform="translate(2649.422 -1465.635)" fill="#fff"/>
  </g>
</svg>
