<svg xmlns="http://www.w3.org/2000/svg" xmlns:xlink="http://www.w3.org/1999/xlink" width="75" height="75" viewBox="0 0 75 75">
  <defs>
    <filter id="Ellipse_183" x="0" y="0" width="75" height="75" filterUnits="userSpaceOnUse">
      <feOffset dy="1" input="SourceAlpha"/>
      <feGaussianBlur stdDeviation="4" result="blur"/>
      <feFlood flood-opacity="0.969"/>
      <feComposite operator="in" in2="blur"/>
      <feComposite in="SourceGraphic"/>
    </filter>
  </defs>
  <g id="Group_16393" data-name="Group 16393" transform="translate(-61 -170)">
    <g transform="matrix(1, 0, 0, 1, 61, 170)" filter="url(#Ellipse_183)">
      <circle id="Ellipse_183-2" data-name="Ellipse 183" cx="25.5" cy="25.5" r="25.5" transform="translate(63 62) rotate(180)" fill="#fff" opacity="0.5"/>
    </g>
  </g>
  <path id="Path" d="M.674.674a2.3,2.3,0,0,0,0,3.255l8.139,8.139L.674,20.207A2.3,2.3,0,0,0,3.93,23.463l8.139-8.139,8.139,8.139a2.3,2.3,0,1,0,3.255-3.255l-8.139-8.139L23.463,3.93A2.3,2.3,0,0,0,20.207.674L12.068,8.813,3.93.674A2.3,2.3,0,0,0,.674.674Z" transform="translate(25.981 24)" fill="#fff"/>
</svg>
