<svg id="Icon_calendar" xmlns="http://www.w3.org/2000/svg" width="20.283" height="20.283" viewBox="0 0 20.283 20.283">
  <path id="Path" d="M0,1.127A1.127,1.127,0,1,1,1.127,2.254,1.127,1.127,0,0,1,0,1.127Z" transform="translate(4.507 6.761)" fill="#fff"/>
  <path id="Path-2" data-name="Path" d="M0,1.127A1.127,1.127,0,1,1,1.127,2.254,1.127,1.127,0,0,1,0,1.127Z" transform="translate(4.507 11.268)" fill="#fff"/>
  <path id="Path-3" data-name="Path" d="M1.127,0A1.127,1.127,0,1,0,2.254,1.127,1.127,1.127,0,0,0,1.127,0Z" transform="translate(9.015 6.761)" fill="#fff"/>
  <path id="Path-4" data-name="Path" d="M0,1.127A1.127,1.127,0,1,1,1.127,2.254,1.127,1.127,0,0,1,0,1.127Z" transform="translate(13.522 6.761)" fill="#fff"/>
  <path id="Shape" d="M18.029,20.283H2.253A2.256,2.256,0,0,1,0,18.029V4.507A2.256,2.256,0,0,1,2.253,2.253H4.507V1.127a1.127,1.127,0,0,1,2.254,0V2.253h6.76V1.127a1.127,1.127,0,0,1,2.254,0V2.253h2.253a2.256,2.256,0,0,1,2.253,2.253V18.029A2.256,2.256,0,0,1,18.029,20.283ZM3.38,4.507A1.128,1.128,0,0,0,2.253,5.635V16.9A1.128,1.128,0,0,0,3.38,18.029H16.9A1.128,1.128,0,0,0,18.029,16.9V5.635A1.128,1.128,0,0,0,16.9,4.507Z" fill="#fff"/>
</svg>
