<svg xmlns="http://www.w3.org/2000/svg" width="48" height="48" viewBox="0 0 48 48">
  <g id="Ellipse_2838" data-name="Ellipse 2838" fill="none" stroke="#fff" stroke-width="3">
    <circle cx="24" cy="24" r="24" stroke="none"/>
    <circle cx="24" cy="24" r="22.5" fill="none"/>
  </g>
  <g id="Group_16170" data-name="Group 16170" transform="translate(278.5 -63.744)">
    <g id="Icons_24px_Black_Letter" data-name="Icons/24px/Black/Letter" transform="translate(-266.5 77.744)">
      <g id="letter" transform="translate(0 0)">
        <path id="Path" d="M13.4,5.7a2.3,2.3,0,0,1-1.4.4,2.3,2.3,0,0,1-1.4-.4L0,0V10.1a3,3,0,0,0,3,3H21a3,3,0,0,0,3-3V0Z" transform="translate(0 6.9)" fill="#fff"/>
        <path id="Path-2" data-name="Path" d="M21,0H3A3,3,0,0,0,0,3V4a1.05,1.05,0,0,0,.5.9l11,6a.9.9,0,0,0,.5.1.9.9,0,0,0,.5-.1l11-6A1.05,1.05,0,0,0,24,4V3A3,3,0,0,0,21,0Z" transform="translate(0 0)" fill="#fff"/>
      </g>
    </g>
  </g>
</svg>
