<svg xmlns="http://www.w3.org/2000/svg" width="31" height="31" viewBox="0 0 31 31">
  <g id="Icon_settings" transform="translate(-0.361)">
    <path id="Shape" d="M16.469,31H14.531a1.94,1.94,0,0,1-1.937-1.937l-.233-1.628A1.936,1.936,0,0,0,9.28,26.158l-1.314.987a1.938,1.938,0,0,1-2.74,0l-1.37-1.37a1.941,1.941,0,0,1,0-2.74l.987-1.316a1.937,1.937,0,0,0-1.277-3.08l-1.627-.233A1.94,1.94,0,0,1,0,16.469V14.531a1.94,1.94,0,0,1,1.938-1.937l1.627-.233A1.938,1.938,0,0,0,4.842,9.28L3.855,7.965a1.941,1.941,0,0,1,0-2.74l1.37-1.37a1.938,1.938,0,0,1,2.74,0l1.314.987a1.936,1.936,0,0,0,3.081-1.277l.233-1.627A1.94,1.94,0,0,1,14.531,0h1.938a1.94,1.94,0,0,1,1.938,1.938l.233,1.627a1.934,1.934,0,0,0,3.08,1.277l1.316-.987a1.938,1.938,0,0,1,2.74,0l1.37,1.37a1.941,1.941,0,0,1,0,2.74L26.158,9.28a1.938,1.938,0,0,0,1.277,3.081l1.628.233A1.94,1.94,0,0,1,31,14.531v1.938a1.94,1.94,0,0,1-1.937,1.938l-1.628.233a1.937,1.937,0,0,0-1.277,3.08l.987,1.316a1.941,1.941,0,0,1,0,2.74l-1.37,1.37a1.938,1.938,0,0,1-2.74,0l-1.316-.987a1.934,1.934,0,0,0-3.08,1.277l-.233,1.628A1.94,1.94,0,0,1,16.469,31ZM15.5,11.625A3.875,3.875,0,1,0,19.375,15.5,3.879,3.879,0,0,0,15.5,11.625Z" transform="translate(0.361)" fill="#fff"/>
  </g>
</svg>
