<svg xmlns="http://www.w3.org/2000/svg" width="168.982" height="154.535" viewBox="0 0 168.982 154.535">
  <g id="Group_16809" data-name="Group 16809" transform="translate(1.906)">
    <g id="Group_16796" data-name="Group 16796" transform="translate(25.714 74.93)">
      <path id="Path_11835" data-name="Path 11835" d="M74.059,117.73h-9.8a1.193,1.193,0,0,1-1.192-1.192v-4.315a27.54,27.54,0,0,1-9-3.772l-3.128,2.978a1.19,1.19,0,0,1-1.685-.041l-6.764-7.1a1.194,1.194,0,0,1,.041-1.688l2.987-2.845A27.62,27.62,0,0,1,42,91.166H37.678a1.2,1.2,0,0,1-1.2-1.192V80.166a1.2,1.2,0,0,1,1.2-1.192h4.315a27.55,27.55,0,0,1,3.524-8.6L42.53,67.523a1.187,1.187,0,0,1-.041-1.685l6.764-7.1a1.193,1.193,0,0,1,1.685-.038l3.128,2.978a27.541,27.541,0,0,1,9-3.772V53.59A1.193,1.193,0,0,1,64.254,52.4h9.8a1.2,1.2,0,0,1,1.2,1.192v4.318a27.564,27.564,0,0,1,8.984,3.769L87.363,58.7a1.2,1.2,0,0,1,1.688.038l6.764,7.1a1.194,1.194,0,0,1-.041,1.685l-2.987,2.848a27.592,27.592,0,0,1,3.524,8.6h4.315a1.193,1.193,0,0,1,1.192,1.192v9.807a1.2,1.2,0,0,1-1.192,1.192H96.308a27.649,27.649,0,0,1-3.521,8.591l2.987,2.845a1.2,1.2,0,0,1,.041,1.688l-6.764,7.1a1.194,1.194,0,0,1-1.688.041l-3.125-2.978a27.627,27.627,0,0,1-8.984,3.769v4.318A1.2,1.2,0,0,1,74.059,117.73Zm-20.045-9.84.148.1a27.127,27.127,0,0,0,9.167,3.843l.174.038v4.669a.752.752,0,0,0,.753.753h9.8a.754.754,0,0,0,.756-.753v-4.672l.171-.038a27.137,27.137,0,0,0,9.158-3.84l.145-.1,3.379,3.22a.757.757,0,0,0,1.065-.024l6.761-7.1a.752.752,0,0,0-.024-1.065l-3.249-3.093.1-.153a27.13,27.13,0,0,0,3.6-8.777l.038-.171h4.672a.756.756,0,0,0,.753-.753V80.166a.754.754,0,0,0-.753-.753H95.957l-.038-.174a27.118,27.118,0,0,0-3.6-8.786l-.1-.153,3.249-3.093a.76.76,0,0,0,.233-.528.732.732,0,0,0-.21-.537l-6.761-7.1a.76.76,0,0,0-1.065-.027l-3.379,3.22-.145-.094A27.2,27.2,0,0,0,74.985,58.3l-.171-.035V53.59a.754.754,0,0,0-.756-.753h-9.8a.752.752,0,0,0-.753.753v4.669l-.174.038a27.127,27.127,0,0,0-9.167,3.843l-.148.094-3.379-3.22a.751.751,0,0,0-1.062.027l-6.764,7.1a.748.748,0,0,0,.027,1.065L46.081,70.3l-.1.153a27.184,27.184,0,0,0-3.6,8.786l-.035.174H37.678a.754.754,0,0,0-.756.753v9.807a.756.756,0,0,0,.756.753H42.35l.035.171a27.235,27.235,0,0,0,3.6,8.777l.1.153-3.246,3.093a.755.755,0,0,0-.027,1.065l6.764,7.1a.754.754,0,0,0,1.062.024Zm15.137-4.566A18.262,18.262,0,1,1,87.413,85.063,18.283,18.283,0,0,1,69.151,103.325Zm0-36.085A17.823,17.823,0,1,0,86.973,85.063,17.844,17.844,0,0,0,69.151,67.24Z" transform="translate(-36.483 -52.398)" fill="#d0d2d3"/>
    </g>
    <g id="Group_16797" data-name="Group 16797" transform="translate(51.01 23.011)">
      <path id="Path_11836" data-name="Path 11836" d="M59.763,43.728,45.054,68.365c9.111.862,21.813.481,31.576-5.962a38.258,38.258,0,0,1,27.417-6.062L91.858,34.806a33.89,33.89,0,0,1-17.427,4.53C69.34,39.283,64.051,41.387,59.763,43.728Z" transform="translate(-45.054 -34.806)" fill="#6c91a0"/>
    </g>
    <g id="Group_16798" data-name="Group 16798" transform="translate(69.493)">
      <path id="Path_11837" data-name="Path 11837" d="M65.114,50.97c6.416.342,10.867-.844,13.806-2.216L72.371,37.185a7.868,7.868,0,0,0-5.268,5.5s-.933-2.42,1.541-5.554c1.169-1.479.891-3.9.274-6.044L66.61,27.009,51.317,52.62A44.636,44.636,0,0,1,65.114,50.97Z" transform="translate(-51.317 -27.009)" fill="#4a7583"/>
    </g>
    <g id="Group_16802" data-name="Group 16802" transform="translate(13.558 79.823)">
      <g id="Group_16799" data-name="Group 16799" transform="translate(26.782 9.73)">
        <circle id="Ellipse_2841" data-name="Ellipse 2841" cx="18.042" cy="18.042" r="18.042" fill="#a9c2d6"/>
      </g>
      <g id="Group_16800" data-name="Group 16800" transform="translate(68.434)">
        <path id="Path_11838" data-name="Path 11838" d="M103.537,54.056l-1.812,1.659A51.619,51.619,0,0,1,55.552,67.529a27.391,27.391,0,0,1,3.379,8.455l4.451.035A1.17,1.17,0,0,1,64.545,77.2l-.074,9.432a1.168,1.168,0,0,1-1.178,1.16l-4.383-.032a27.35,27.35,0,0,1-1.83,5.486c.274-.139.549-.272.826-.413,26.733-13.614,48.525-13.157,61.522-10.7Z" transform="translate(-55.552 -54.056)" fill="#a9c2d6"/>
      </g>
      <g id="Group_16801" data-name="Group 16801" transform="translate(0 9.294)">
        <path id="Path_11839" data-name="Path 11839" d="M50.712,93.5l3.14-3.06a27.428,27.428,0,0,1-3.6-8.691H45.8a1.168,1.168,0,0,1-1.169-1.169l-.006-9.432a1.17,1.17,0,0,1,1.172-1.169l4.377,0a27.522,27.522,0,0,1,3.68-9.043L50.7,57.783a1.126,1.126,0,0,1-.316-.578L32.364,87.379a80.158,80.158,0,0,0,18.082,6.513A1.157,1.157,0,0,1,50.712,93.5Z" transform="translate(-32.364 -57.205)" fill="#a9c2d6"/>
      </g>
    </g>
    <g id="Group_16805" data-name="Group 16805" transform="translate(0 111.152)">
      <g id="Group_16803" data-name="Group 16803">
        <path id="Path_11840" data-name="Path 11840" d="M178.116,69.33c-11.956-5.545-33.405-8.933-67.935,6.525-.21.094-.419.183-.629.277l3,3.022a1.17,1.17,0,0,1-.006,1.656l-6.7,6.637a1.173,1.173,0,0,1-1.656-.006L101.1,84.326a27.432,27.432,0,0,1-9.057,3.766l-.027,4.453a1.172,1.172,0,0,1-1.178,1.163l-9.432-.056a1.17,1.17,0,0,1-1.163-1.178l.027-4.38a27.416,27.416,0,0,1-9.19-3.845l-3.19,3.111a1.17,1.17,0,0,1-1.656-.021l-5.318-5.457a72.081,72.081,0,0,1-20.352-7.8L27.77,95.514h90.48a29.876,29.876,0,0,1,3.719-8.627l-3.426-3.423a1.272,1.272,0,0,1,0-1.8l7.245-7.254a1.269,1.269,0,0,1,1.8,0l3.373,3.367a29.816,29.816,0,0,1,9.807-4.141V68.8a1.27,1.27,0,0,1,1.269-1.272h10.253a1.272,1.272,0,0,1,1.272,1.272v4.757a29.8,29.8,0,0,1,10.064,4.158l3.456-3.4a1.272,1.272,0,0,1,1.8.018l7.183,7.313a1.275,1.275,0,0,1-.015,1.8l-3.4,3.338a29.816,29.816,0,0,1,3.781,8.73h16.521Z" transform="translate(-27.77 -64.671)" fill="#ced7de"/>
      </g>
      <g id="Group_16804" data-name="Group 16804" transform="translate(101.164 18.421)">
        <path id="Path_11841" data-name="Path 11841" d="M80.455,70.913A19.85,19.85,0,0,0,62.048,83.335H98.862A19.844,19.844,0,0,0,80.455,70.913Z" transform="translate(-62.048 -70.913)" fill="#ced7de"/>
      </g>
    </g>
    <g id="Group_16808" data-name="Group 16808" transform="translate(37.23 45.953)">
      <g id="Group_16806" data-name="Group 16806" transform="translate(50.427 9.93)">
        <circle id="Ellipse_2842" data-name="Ellipse 2842" cx="9.914" cy="9.914" r="9.914" fill="#81abba"/>
      </g>
      <g id="Group_16807" data-name="Group 16807">
        <path id="Path_11842" data-name="Path 11842" d="M114.4,43.363c-13.694-1.909-16.925-.72-30.856,7.977-9.955,6.218-23.244,6.3-31.576,5.54L40.385,76.27a64.822,64.822,0,0,1,15.282.605V72.749a.975.975,0,0,1,.974-.974h9.8a.975.975,0,0,1,.974.974v4.495a27.322,27.322,0,0,1,9.229,3.872l3.255-3.1a.971.971,0,0,1,1.375.032l6.764,7.1a.977.977,0,0,1-.035,1.378l-.573.543c23.829,5.666,40.857-6.9,45.535-10.9Zm3.624,22.291h-2.47a15.1,15.1,0,0,1-1.992,4.861l1.712,1.632a.539.539,0,0,1,.018.758l-3.716,3.9a.533.533,0,0,1-.756.021l-1.788-1.7a15.084,15.084,0,0,1-5.07,2.125v2.47a.534.534,0,0,1-.534.534H98.035a.534.534,0,0,1-.534-.534V77.249a15.11,15.11,0,0,1-5.079-2.128l-1.786,1.7a.536.536,0,0,1-.758-.021l-3.716-3.9a.539.539,0,0,1,.018-.758l1.715-1.632a15.041,15.041,0,0,1-2-4.861H83.432a.534.534,0,0,1-.534-.534V59.731a.534.534,0,0,1,.534-.534H85.9a15.1,15.1,0,0,1,2-4.867L86.18,52.7a.535.535,0,0,1-.018-.756l3.716-3.9a.539.539,0,0,1,.758-.018l1.786,1.7A15.051,15.051,0,0,1,97.5,47.6v-2.47a.534.534,0,0,1,.534-.534h5.389a.534.534,0,0,1,.534.534V47.6a15.09,15.09,0,0,1,5.07,2.128l1.788-1.7a.535.535,0,0,1,.756.018l3.716,3.9a.535.535,0,0,1-.018.756l-1.712,1.632a15.028,15.028,0,0,1,1.992,4.867h2.47a.534.534,0,0,1,.534.534V65.12A.534.534,0,0,1,118.021,65.654Z" transform="translate(-40.385 -42.58)" fill="#81abba"/>
      </g>
    </g>
  </g>
  <g id="Group_16847" data-name="Group 16847" transform="translate(-376.738 -198.688)">
    <g id="Group_16845" data-name="Group 16845" transform="translate(376.738 346.673)">
      <g id="Group_16810" data-name="Group 16810" transform="translate(0 0.117)">
        <path id="Path_11843" data-name="Path 11843" d="M27.99,77.332v-.141h2.2v.141h-.187a.541.541,0,0,0-.457.184,1.156,1.156,0,0,0-.093.584v2.515a2.9,2.9,0,0,1-.126.939,1.438,1.438,0,0,1-.436.626,1.1,1.1,0,0,1-.752.268.826.826,0,0,1-.56-.175.527.527,0,0,1-.2-.406.392.392,0,0,1,.093-.28.419.419,0,0,1,.292-.117.337.337,0,0,1,.22.081,1.277,1.277,0,0,1,.244.424c.057.135.132.2.223.2a.245.245,0,0,0,.193-.126.8.8,0,0,0,.09-.442V78.1a1.677,1.677,0,0,0-.051-.514.331.331,0,0,0-.159-.162.7.7,0,0,0-.343-.09Z" transform="translate(-27.376 -77.191)" fill="#49484a"/>
      </g>
      <g id="Group_16811" data-name="Group 16811" transform="translate(3.412 4.522)">
        <path id="Path_11844" data-name="Path 11844" d="M28.928,78.655a.4.4,0,0,1,.3.123.4.4,0,0,1,.12.3.42.42,0,0,1-.839,0,.4.4,0,0,1,.123-.3A.4.4,0,0,1,28.928,78.655Z" transform="translate(-28.51 -78.655)" fill="#49484a"/>
      </g>
      <g id="Group_16812" data-name="Group 16812" transform="translate(5.286)">
        <path id="Path_11845" data-name="Path 11845" d="M32.208,77.152V78.93h-.141a2.2,2.2,0,0,0-.244-.815,1.291,1.291,0,0,0-.5-.481,1.4,1.4,0,0,0-.674-.178.92.92,0,0,0-.653.241.733.733,0,0,0-.259.548.637.637,0,0,0,.165.427,4.149,4.149,0,0,0,1.116.758,7.976,7.976,0,0,1,.984.593,1.493,1.493,0,0,1,.406.487,1.3,1.3,0,0,1,.141.587,1.327,1.327,0,0,1-.454,1.008,1.643,1.643,0,0,1-1.164.421,2.688,2.688,0,0,1-.421-.033,4.516,4.516,0,0,1-.487-.138,2.061,2.061,0,0,0-.466-.12.2.2,0,0,0-.15.057.47.47,0,0,0-.081.235h-.141V80.762h.141a2.509,2.509,0,0,0,.265.83,1.267,1.267,0,0,0,.511.454,1.555,1.555,0,0,0,.752.184,1.065,1.065,0,0,0,.746-.25.779.779,0,0,0,.277-.593.805.805,0,0,0-.105-.382,1.129,1.129,0,0,0-.325-.361,9.332,9.332,0,0,0-.806-.481,7.878,7.878,0,0,1-.939-.59,1.656,1.656,0,0,1-.421-.484,1.207,1.207,0,0,1-.144-.584,1.267,1.267,0,0,1,.424-.954,1.508,1.508,0,0,1,1.08-.4,2.152,2.152,0,0,1,.869.2.88.88,0,0,0,.3.093.228.228,0,0,0,.162-.057.479.479,0,0,0,.1-.238Z" transform="translate(-29.133 -77.152)" fill="#49484a"/>
      </g>
      <g id="Group_16813" data-name="Group 16813" transform="translate(9.667 4.522)">
        <path id="Path_11846" data-name="Path 11846" d="M31.01,78.655a.391.391,0,0,1,.3.123.418.418,0,0,1,0,.593.421.421,0,0,1-.6,0,.418.418,0,0,1,.3-.716Z" transform="translate(-30.589 -78.655)" fill="#49484a"/>
      </g>
      <g id="Group_16814" data-name="Group 16814" transform="translate(13.157 0.117)">
        <path id="Path_11847" data-name="Path 11847" d="M33.211,77.471V79.5h1.131a.911.911,0,0,0,.587-.132.842.842,0,0,0,.22-.614h.141v1.79h-.141a1.956,1.956,0,0,0-.105-.481.463.463,0,0,0-.226-.208,1.114,1.114,0,0,0-.475-.078H33.211v1.694a1.476,1.476,0,0,0,.033.415A.211.211,0,0,0,33.35,82a.616.616,0,0,0,.286.045h.872a2.438,2.438,0,0,0,.635-.06.95.95,0,0,0,.376-.241A2.774,2.774,0,0,0,36,81.042h.153l-.445,1.288H31.749v-.138h.184a.726.726,0,0,0,.343-.087.329.329,0,0,0,.165-.184,1.729,1.729,0,0,0,.045-.5v-3.34a1.1,1.1,0,0,0-.1-.6.594.594,0,0,0-.454-.15h-.184v-.141h3.959l.057,1.125h-.147a1.771,1.771,0,0,0-.175-.557.631.631,0,0,0-.286-.232,1.783,1.783,0,0,0-.536-.057Z" transform="translate(-31.749 -77.191)" fill="#49484a"/>
      </g>
      <g id="Group_16815" data-name="Group 16815" transform="translate(17.637 0.117)">
        <path id="Path_11848" data-name="Path 11848" d="M33.238,77.191h1.393l3.144,3.854V78.082a1,1,0,0,0-.108-.59.552.552,0,0,0-.442-.159h-.178v-.141h1.787v.141h-.181a.528.528,0,0,0-.463.2,1.177,1.177,0,0,0-.081.554v4.332h-.138l-3.388-4.14v3.165a1.048,1.048,0,0,0,.1.593.574.574,0,0,0,.445.159h.181v.138h-1.79v-.138H33.7a.528.528,0,0,0,.466-.2,1.177,1.177,0,0,0,.081-.554V77.865a2.248,2.248,0,0,0-.337-.343,1.246,1.246,0,0,0-.34-.156,1.277,1.277,0,0,0-.334-.033Z" transform="translate(-33.238 -77.191)" fill="#49484a"/>
      </g>
      <g id="Group_16816" data-name="Group 16816" transform="translate(23.618)">
        <path id="Path_11849" data-name="Path 11849" d="M39.715,77.152l.132,1.622h-.132a2.217,2.217,0,0,0-.517-.912,1.624,1.624,0,0,0-1.179-.445,1.672,1.672,0,0,0-1.492.776,2.8,2.8,0,0,0-.43,1.561,3.118,3.118,0,0,0,.286,1.342,2,2,0,0,0,.743.891,1.806,1.806,0,0,0,.948.283,2.2,2.2,0,0,0,.548-.072,2.166,2.166,0,0,0,.511-.214V80.5a1.4,1.4,0,0,0-.057-.505.4.4,0,0,0-.184-.181,1.034,1.034,0,0,0-.433-.063V79.6h1.989v.144h-.093a.424.424,0,0,0-.406.2,1.329,1.329,0,0,0-.075.554v1.574a3.992,3.992,0,0,1-.86.346,3.826,3.826,0,0,1-.945.108,2.747,2.747,0,0,1-2.262-.954,2.559,2.559,0,0,1-.578-1.652,2.891,2.891,0,0,1,1.387-2.437,2.859,2.859,0,0,1,1.841-.286,4.383,4.383,0,0,1,.65.2.992.992,0,0,0,.286.078.152.152,0,0,0,.123-.066.519.519,0,0,0,.063-.259Z" transform="translate(-35.226 -77.152)" fill="#49484a"/>
      </g>
      <g id="Group_16817" data-name="Group 16817" transform="translate(29.141 0.117)">
        <path id="Path_11850" data-name="Path 11850" d="M39.264,82.191v.138h-2.2v-.138h.181A.551.551,0,0,0,37.706,82a1.167,1.167,0,0,0,.09-.584V78.1a1.708,1.708,0,0,0-.048-.514.337.337,0,0,0-.156-.162.719.719,0,0,0-.349-.09h-.181v-.141h2.2v.141h-.187a.541.541,0,0,0-.457.184,1.113,1.113,0,0,0-.1.584v3.322a1.677,1.677,0,0,0,.051.514.337.337,0,0,0,.156.162.719.719,0,0,0,.346.093Z" transform="translate(-37.062 -77.191)" fill="#49484a"/>
      </g>
      <g id="Group_16818" data-name="Group 16818" transform="translate(31.431 0.117)">
        <path id="Path_11851" data-name="Path 11851" d="M37.823,77.191h1.393l3.141,3.854V78.082a1,1,0,0,0-.105-.59.552.552,0,0,0-.442-.159h-.178v-.141h1.787v.141h-.181a.528.528,0,0,0-.463.2,1.165,1.165,0,0,0-.084.554v4.332h-.135l-3.388-4.14v3.165a1.048,1.048,0,0,0,.1.593.571.571,0,0,0,.442.159H39.9v.138h-1.79v-.138h.178a.521.521,0,0,0,.466-.2,1.127,1.127,0,0,0,.084-.554V77.865a2.1,2.1,0,0,0-.34-.343,1.181,1.181,0,0,0-.337-.156,1.31,1.31,0,0,0-.334-.033Z" transform="translate(-37.823 -77.191)" fill="#49484a"/>
      </g>
      <g id="Group_16819" data-name="Group 16819" transform="translate(37.298 0.117)">
        <path id="Path_11852" data-name="Path 11852" d="M41.235,77.471V79.5h1.128a.9.9,0,0,0,.587-.132.842.842,0,0,0,.22-.614h.141v1.79H43.17a1.82,1.82,0,0,0-.105-.481.469.469,0,0,0-.223-.208,1.139,1.139,0,0,0-.478-.078H41.235v1.694a1.528,1.528,0,0,0,.03.415.223.223,0,0,0,.105.117.631.631,0,0,0,.289.045h.872a2.428,2.428,0,0,0,.632-.06.959.959,0,0,0,.379-.241,2.938,2.938,0,0,0,.481-.707h.15l-.442,1.288H39.773v-.138h.181A.747.747,0,0,0,40.3,82.1a.324.324,0,0,0,.162-.184,1.728,1.728,0,0,0,.045-.5v-3.34a1.1,1.1,0,0,0-.1-.6.589.589,0,0,0-.454-.15h-.181v-.141h3.959l.057,1.125h-.147a1.837,1.837,0,0,0-.178-.557.616.616,0,0,0-.286-.232,1.783,1.783,0,0,0-.536-.057Z" transform="translate(-39.773 -77.191)" fill="#49484a"/>
      </g>
      <g id="Group_16820" data-name="Group 16820" transform="translate(42.036 0.117)">
        <path id="Path_11853" data-name="Path 11853" d="M42.81,77.471V79.5h1.131a.911.911,0,0,0,.587-.132.842.842,0,0,0,.22-.614h.141v1.79h-.141a1.955,1.955,0,0,0-.105-.481.469.469,0,0,0-.223-.208,1.139,1.139,0,0,0-.478-.078H42.81v1.694a1.476,1.476,0,0,0,.033.415.211.211,0,0,0,.105.117.631.631,0,0,0,.289.045h.869a2.438,2.438,0,0,0,.635-.06.98.98,0,0,0,.379-.241,2.938,2.938,0,0,0,.481-.707h.15L45.31,82.33H41.348v-.138h.184a.726.726,0,0,0,.343-.087.319.319,0,0,0,.165-.184,1.728,1.728,0,0,0,.045-.5v-3.34a1.1,1.1,0,0,0-.1-.6.594.594,0,0,0-.454-.15h-.184v-.141H45.31l.054,1.125h-.147a1.77,1.77,0,0,0-.174-.557.631.631,0,0,0-.286-.232,1.783,1.783,0,0,0-.536-.057Z" transform="translate(-41.348 -77.191)" fill="#49484a"/>
      </g>
      <g id="Group_16821" data-name="Group 16821" transform="translate(46.751 0.117)">
        <path id="Path_11854" data-name="Path 11854" d="M48.027,82.33H46.655l-1.739-2.4c-.129,0-.232.006-.313.006l-.108,0-.117,0v1.492a1.031,1.031,0,0,0,.108.6.536.536,0,0,0,.43.168h.2v.138h-2.2v-.138h.193a.515.515,0,0,0,.466-.214,1.175,1.175,0,0,0,.081-.557V78.1a1.065,1.065,0,0,0-.105-.6.561.561,0,0,0-.442-.165h-.193v-.141h1.871a4.4,4.4,0,0,1,1.209.12,1.369,1.369,0,0,1,.659.439,1.147,1.147,0,0,1,.271.764,1.189,1.189,0,0,1-.31.821,1.742,1.742,0,0,1-.957.493L46.721,81.3a2.625,2.625,0,0,0,.626.674,1.6,1.6,0,0,0,.68.214Zm-3.649-2.642.126,0,.087,0a1.67,1.67,0,0,0,1.107-.319,1.021,1.021,0,0,0,.373-.812,1.059,1.059,0,0,0-.3-.782,1.075,1.075,0,0,0-.8-.3,3.362,3.362,0,0,0-.6.072Z" transform="translate(-42.915 -77.191)" fill="#49484a"/>
      </g>
      <g id="Group_16822" data-name="Group 16822" transform="translate(51.989 0.117)">
        <path id="Path_11855" data-name="Path 11855" d="M46.858,82.191v.138h-2.2v-.138h.181A.551.551,0,0,0,45.3,82a1.167,1.167,0,0,0,.09-.584V78.1a1.708,1.708,0,0,0-.048-.514.351.351,0,0,0-.156-.162.719.719,0,0,0-.349-.09h-.181v-.141h2.2v.141h-.187a.541.541,0,0,0-.457.184,1.113,1.113,0,0,0-.1.584v3.322a1.817,1.817,0,0,0,.048.514.344.344,0,0,0,.159.162.71.71,0,0,0,.346.093Z" transform="translate(-44.656 -77.191)" fill="#49484a"/>
      </g>
      <g id="Group_16823" data-name="Group 16823" transform="translate(54.278 0.117)">
        <path id="Path_11856" data-name="Path 11856" d="M45.417,77.191H46.81l3.141,3.854V78.082a1,1,0,0,0-.105-.59.552.552,0,0,0-.442-.159h-.181v-.141h1.79v.141h-.181a.525.525,0,0,0-.463.2,1.127,1.127,0,0,0-.084.554v4.332H50.15l-3.388-4.14v3.165a1.049,1.049,0,0,0,.1.593.571.571,0,0,0,.442.159h.184v.138H45.7v-.138h.178a.525.525,0,0,0,.466-.2,1.127,1.127,0,0,0,.084-.554V77.865a2.227,2.227,0,0,0-.34-.343,1.165,1.165,0,0,0-.34-.156,1.267,1.267,0,0,0-.331-.033Z" transform="translate(-45.417 -77.191)" fill="#49484a"/>
      </g>
      <g id="Group_16824" data-name="Group 16824" transform="translate(60.257)">
        <path id="Path_11857" data-name="Path 11857" d="M51.9,77.152l.132,1.622H51.9a2.219,2.219,0,0,0-.52-.912,1.612,1.612,0,0,0-1.176-.445,1.681,1.681,0,0,0-1.5.776,2.8,2.8,0,0,0-.427,1.561,3.117,3.117,0,0,0,.283,1.342,2,2,0,0,0,.746.891,1.8,1.8,0,0,0,.945.283,2.1,2.1,0,0,0,1.062-.286V80.5a1.375,1.375,0,0,0-.06-.505.4.4,0,0,0-.181-.181,1.035,1.035,0,0,0-.433-.063V79.6h1.989v.144h-.1a.422.422,0,0,0-.4.2,1.316,1.316,0,0,0-.078.554v1.574a3.911,3.911,0,0,1-.857.346,3.843,3.843,0,0,1-.945.108,2.743,2.743,0,0,1-2.262-.954A2.562,2.562,0,0,1,47.4,79.92a2.724,2.724,0,0,1,.328-1.3,2.767,2.767,0,0,1,1.059-1.137,2.6,2.6,0,0,1,1.336-.331,2.641,2.641,0,0,1,.508.045,4.383,4.383,0,0,1,.65.2,1.006,1.006,0,0,0,.283.078.148.148,0,0,0,.123-.066.461.461,0,0,0,.063-.259Z" transform="translate(-47.404 -77.152)" fill="#49484a"/>
      </g>
      <g id="Group_16825" data-name="Group 16825" transform="translate(67.161)">
        <path id="Path_11858" data-name="Path 11858" d="M53.189,80.687H51.2l-.349.812a1.327,1.327,0,0,0-.129.445.265.265,0,0,0,.111.208.979.979,0,0,0,.484.117v.138H49.7V82.27a.852.852,0,0,0,.418-.15,2.3,2.3,0,0,0,.427-.737l1.808-4.23h.132l1.79,4.275a1.911,1.911,0,0,0,.391.668.812.812,0,0,0,.49.174v.138H53.129V82.27a.756.756,0,0,0,.415-.105.258.258,0,0,0,.108-.211,1.609,1.609,0,0,0-.15-.527Zm-.105-.28-.873-2.076-.894,2.076Z" transform="translate(-49.699 -77.152)" fill="#49484a"/>
      </g>
      <g id="Group_16826" data-name="Group 16826" transform="translate(72.604 0.117)">
        <path id="Path_11859" data-name="Path 11859" d="M51.508,77.191H52.9l3.144,3.854V78.082a1,1,0,0,0-.108-.59.552.552,0,0,0-.442-.159h-.178v-.141H57.1v.141h-.181a.528.528,0,0,0-.463.2,1.165,1.165,0,0,0-.084.554v4.332h-.135l-3.388-4.14v3.165a1.049,1.049,0,0,0,.1.593.571.571,0,0,0,.442.159h.184v.138h-1.79v-.138h.181a.519.519,0,0,0,.463-.2,1.128,1.128,0,0,0,.084-.554V77.865a2.1,2.1,0,0,0-.34-.343,1.181,1.181,0,0,0-.337-.156,1.31,1.31,0,0,0-.334-.033Z" transform="translate(-51.508 -77.191)" fill="#49484a"/>
      </g>
      <g id="Group_16827" data-name="Group 16827" transform="translate(78.444 0.117)">
        <path id="Path_11860" data-name="Path 11860" d="M53.449,82.33v-.138h.193a.515.515,0,0,0,.463-.211,1.208,1.208,0,0,0,.081-.56V78.1a1.052,1.052,0,0,0-.105-.6.554.554,0,0,0-.439-.165h-.193v-.141H55.54a4.573,4.573,0,0,1,1.754.262,2.091,2.091,0,0,1,.966.872,2.683,2.683,0,0,1,.364,1.408,2.573,2.573,0,0,1-.65,1.793,2.868,2.868,0,0,1-2.229.8Zm1.465-.37a3.976,3.976,0,0,0,.809.105,1.91,1.91,0,0,0,1.456-.617,2.713,2.713,0,0,0,0-3.355,1.951,1.951,0,0,0-1.486-.614,3.281,3.281,0,0,0-.779.108Z" transform="translate(-53.449 -77.191)" fill="#49484a"/>
      </g>
      <g id="Group_16828" data-name="Group 16828" transform="translate(85.983 0.117)">
        <path id="Path_11861" data-name="Path 11861" d="M59,82.33l-1.986-4.323v3.433a1.076,1.076,0,0,0,.1.593.565.565,0,0,0,.445.159h.181v.138h-1.79v-.138h.184a.526.526,0,0,0,.463-.2,1.177,1.177,0,0,0,.081-.554V78.082a1.179,1.179,0,0,0-.075-.493.432.432,0,0,0-.2-.184,1.065,1.065,0,0,0-.457-.072v-.141h1.456l1.865,4.019,1.832-4.019h1.456v.141h-.178a.53.53,0,0,0-.466.2,1.165,1.165,0,0,0-.084.554v3.358a1.008,1.008,0,0,0,.108.593.562.562,0,0,0,.442.159h.178v.138H60.384v-.138h.181a.519.519,0,0,0,.463-.2,1.177,1.177,0,0,0,.081-.554V78.006l-1.98,4.323Z" transform="translate(-55.955 -77.191)" fill="#49484a"/>
      </g>
      <g id="Group_16829" data-name="Group 16829" transform="translate(92.915 0.117)">
        <path id="Path_11862" data-name="Path 11862" d="M59.721,77.471V79.5h1.131a.911.911,0,0,0,.587-.132.855.855,0,0,0,.22-.614H61.8v1.79h-.138a2.113,2.113,0,0,0-.105-.481.463.463,0,0,0-.226-.208,1.114,1.114,0,0,0-.475-.078H59.721v1.694a1.675,1.675,0,0,0,.03.415A.228.228,0,0,0,59.86,82a.607.607,0,0,0,.286.045h.872a2.4,2.4,0,0,0,.632-.06.939.939,0,0,0,.379-.241,2.774,2.774,0,0,0,.481-.707h.153l-.445,1.288H58.259v-.138h.184a.726.726,0,0,0,.343-.087.329.329,0,0,0,.165-.184,1.763,1.763,0,0,0,.042-.5v-3.34a1.135,1.135,0,0,0-.1-.6.594.594,0,0,0-.454-.15h-.184v-.141h3.959l.057,1.125h-.147a1.77,1.77,0,0,0-.174-.557.647.647,0,0,0-.286-.232,1.783,1.783,0,0,0-.536-.057Z" transform="translate(-58.259 -77.191)" fill="#49484a"/>
      </g>
      <g id="Group_16830" data-name="Group 16830" transform="translate(97.777)">
        <path id="Path_11863" data-name="Path 11863" d="M64.268,77.152l.117,1.748h-.117a2.221,2.221,0,0,0-.671-1.131,1.647,1.647,0,0,0-1.047-.343,1.619,1.619,0,0,0-1.574,1.086,3.664,3.664,0,0,0-.238,1.414,2.972,2.972,0,0,0,.226,1.209,1.686,1.686,0,0,0,.671.785,1.95,1.95,0,0,0,1.026.271,1.747,1.747,0,0,0,.882-.214,2.908,2.908,0,0,0,.842-.851l.117.078a2.691,2.691,0,0,1-.9,1,2.271,2.271,0,0,1-1.224.319,2.312,2.312,0,0,1-1.977-.948,2.7,2.7,0,0,1-.524-1.658,2.928,2.928,0,0,1,.346-1.414,2.468,2.468,0,0,1,.948-1,2.558,2.558,0,0,1,1.321-.355,2.392,2.392,0,0,1,1.1.274.649.649,0,0,0,.229.084.248.248,0,0,0,.177-.072.6.6,0,0,0,.141-.286Z" transform="translate(-59.875 -77.152)" fill="#49484a"/>
      </g>
      <g id="Group_16831" data-name="Group 16831" transform="translate(102.807 0.117)">
        <path id="Path_11864" data-name="Path 11864" d="M63.009,79.574H65.4V78.106a1.73,1.73,0,0,0-.048-.521.331.331,0,0,0-.159-.162.7.7,0,0,0-.346-.09h-.181v-.141h2.2v.141h-.181a.712.712,0,0,0-.346.087.315.315,0,0,0-.162.184,1.765,1.765,0,0,0-.045.5v3.315a1.816,1.816,0,0,0,.048.514.351.351,0,0,0,.156.162.73.73,0,0,0,.349.093h.181v.138h-2.2v-.138h.181A.549.549,0,0,0,65.3,82a1.123,1.123,0,0,0,.093-.584V79.857H63.009v1.564a1.708,1.708,0,0,0,.048.514.344.344,0,0,0,.159.162.7.7,0,0,0,.346.093h.183v.138h-2.2v-.138h.181A.551.551,0,0,0,62.191,82a1.167,1.167,0,0,0,.09-.584V78.106a1.7,1.7,0,0,0-.051-.521.329.329,0,0,0-.153-.162.727.727,0,0,0-.349-.09h-.181v-.141h2.2v.141h-.183a.7.7,0,0,0-.346.087.325.325,0,0,0-.162.184,1.765,1.765,0,0,0-.045.5Z" transform="translate(-61.547 -77.191)" fill="#49484a"/>
      </g>
      <g id="Group_16832" data-name="Group 16832" transform="translate(108.34)">
        <path id="Path_11865" data-name="Path 11865" d="M66.876,80.687H64.884l-.346.812a1.258,1.258,0,0,0-.129.445.256.256,0,0,0,.111.208A.964.964,0,0,0,65,82.27v.138H63.386V82.27a.85.85,0,0,0,.415-.15,2.3,2.3,0,0,0,.427-.737l1.808-4.23h.132l1.79,4.275a1.959,1.959,0,0,0,.391.668.819.819,0,0,0,.49.174v.138H66.816V82.27a.744.744,0,0,0,.412-.105.258.258,0,0,0,.108-.211,1.535,1.535,0,0,0-.15-.527Zm-.108-.28L65.9,78.331,65,80.407Z" transform="translate(-63.386 -77.152)" fill="#49484a"/>
      </g>
      <g id="Group_16833" data-name="Group 16833" transform="translate(113.78 0.117)">
        <path id="Path_11866" data-name="Path 11866" d="M65.194,77.191h1.4l3.141,3.854V78.082a1.028,1.028,0,0,0-.105-.59.555.555,0,0,0-.445-.159H69v-.141h1.79v.141H70.61a.522.522,0,0,0-.46.2,1.127,1.127,0,0,0-.084.554v4.332h-.138l-3.388-4.14v3.165a1.076,1.076,0,0,0,.1.593.574.574,0,0,0,.445.159h.181v.138H65.48v-.138h.178a.524.524,0,0,0,.466-.2,1.165,1.165,0,0,0,.084-.554V77.865a2.227,2.227,0,0,0-.34-.343,1.2,1.2,0,0,0-.34-.156,1.277,1.277,0,0,0-.334-.033Z" transform="translate(-65.194 -77.191)" fill="#49484a"/>
      </g>
      <g id="Group_16834" data-name="Group 16834" transform="translate(119.68 0.117)">
        <path id="Path_11867" data-name="Path 11867" d="M69.357,82.191v.138h-2.2v-.138h.184A.555.555,0,0,0,67.8,82a1.167,1.167,0,0,0,.09-.584V78.1a1.678,1.678,0,0,0-.051-.514.329.329,0,0,0-.153-.162.727.727,0,0,0-.349-.09h-.184v-.141h2.2v.141h-.187a.545.545,0,0,0-.457.184,1.123,1.123,0,0,0-.093.584v3.322a1.708,1.708,0,0,0,.048.514.331.331,0,0,0,.159.162.7.7,0,0,0,.343.093Z" transform="translate(-67.155 -77.191)" fill="#49484a"/>
      </g>
      <g id="Group_16835" data-name="Group 16835" transform="translate(122.351)">
        <path id="Path_11868" data-name="Path 11868" d="M72.436,77.152l.117,1.748h-.117a2.2,2.2,0,0,0-.671-1.131,1.632,1.632,0,0,0-1.044-.343,1.72,1.72,0,0,0-.927.259,1.74,1.74,0,0,0-.65.827,3.726,3.726,0,0,0-.235,1.414,2.973,2.973,0,0,0,.223,1.209,1.692,1.692,0,0,0,.674.785,1.939,1.939,0,0,0,1.023.271,1.766,1.766,0,0,0,.885-.214,2.869,2.869,0,0,0,.839-.851l.117.078a2.661,2.661,0,0,1-.9,1,2.278,2.278,0,0,1-1.225.319,2.322,2.322,0,0,1-1.98-.948,2.7,2.7,0,0,1-.524-1.658,2.962,2.962,0,0,1,.346-1.414,2.5,2.5,0,0,1,.951-1,2.55,2.55,0,0,1,1.321-.355,2.4,2.4,0,0,1,1.1.274.621.621,0,0,0,.226.084.255.255,0,0,0,.181-.072.593.593,0,0,0,.138-.286Z" transform="translate(-68.043 -77.152)" fill="#49484a"/>
      </g>
      <g id="Group_16836" data-name="Group 16836" transform="translate(127.31)">
        <path id="Path_11869" data-name="Path 11869" d="M73.181,80.687H71.192l-.349.812a1.257,1.257,0,0,0-.129.445.256.256,0,0,0,.111.208.979.979,0,0,0,.484.117v.138H69.691V82.27a.865.865,0,0,0,.418-.15,2.359,2.359,0,0,0,.427-.737l1.808-4.23h.132l1.787,4.275a1.953,1.953,0,0,0,.394.668.812.812,0,0,0,.49.174v.138H73.121V82.27a.756.756,0,0,0,.415-.105.258.258,0,0,0,.108-.211,1.559,1.559,0,0,0-.153-.527Zm-.105-.28L72.2,78.331l-.894,2.076Z" transform="translate(-69.691 -77.152)" fill="#49484a"/>
      </g>
      <g id="Group_16837" data-name="Group 16837" transform="translate(133.008 0.117)">
        <path id="Path_11870" data-name="Path 11870" d="M75.878,80.91l.126.027-.439,1.393h-3.98v-.138h.2a.522.522,0,0,0,.466-.214,1.262,1.262,0,0,0,.078-.563V78.1a1.078,1.078,0,0,0-.105-.6.559.559,0,0,0-.439-.165h-.2v-.141h2.329v.141a1.39,1.39,0,0,0-.575.075.456.456,0,0,0-.226.2,1.609,1.609,0,0,0-.06.578v3.228a1.027,1.027,0,0,0,.06.433.252.252,0,0,0,.141.117,2.318,2.318,0,0,0,.59.039h.376a2.753,2.753,0,0,0,.83-.087,1.076,1.076,0,0,0,.433-.31A2.432,2.432,0,0,0,75.878,80.91Z" transform="translate(-71.585 -77.191)" fill="#49484a"/>
      </g>
      <g id="Group_16838" data-name="Group 16838" transform="translate(139.528)">
        <path id="Path_11871" data-name="Path 11871" d="M78.142,77.152l.12,1.748h-.12a2.219,2.219,0,0,0-.668-1.131,1.646,1.646,0,0,0-1.047-.343,1.619,1.619,0,0,0-1.574,1.086,3.664,3.664,0,0,0-.238,1.414,3.024,3.024,0,0,0,.223,1.209,1.692,1.692,0,0,0,.674.785,1.939,1.939,0,0,0,1.023.271,1.766,1.766,0,0,0,.885-.214,2.909,2.909,0,0,0,.842-.851l.117.078a2.692,2.692,0,0,1-.9,1,2.271,2.271,0,0,1-1.225.319,2.312,2.312,0,0,1-1.977-.948,2.7,2.7,0,0,1-.524-1.658,2.96,2.96,0,0,1,.343-1.414,2.5,2.5,0,0,1,.951-1,2.55,2.55,0,0,1,1.321-.355,2.4,2.4,0,0,1,1.1.274.612.612,0,0,0,.229.084.253.253,0,0,0,.178-.072.593.593,0,0,0,.138-.286Z" transform="translate(-73.752 -77.152)" fill="#49484a"/>
      </g>
      <g id="Group_16839" data-name="Group 16839" transform="translate(144.696)">
        <path id="Path_11872" data-name="Path 11872" d="M78.033,77.152a2.331,2.331,0,0,1,1.736.761,2.622,2.622,0,0,1,.731,1.9,2.692,2.692,0,0,1-.737,1.944,2.472,2.472,0,0,1-3.571.021,2.714,2.714,0,0,1-.722-1.953,2.6,2.6,0,0,1,.833-2A2.45,2.45,0,0,1,78.033,77.152Zm-.072.277a1.356,1.356,0,0,0-1.1.511,2.9,2.9,0,0,0-.52,1.865,3.048,3.048,0,0,0,.539,1.935,1.325,1.325,0,0,0,1.092.517,1.49,1.49,0,0,0,1.194-.566,2.742,2.742,0,0,0,.472-1.781,3.118,3.118,0,0,0-.52-1.968A1.4,1.4,0,0,0,77.961,77.429Z" transform="translate(-75.47 -77.152)" fill="#49484a"/>
      </g>
      <g id="Group_16840" data-name="Group 16840" transform="translate(150.578 4.522)">
        <path id="Path_11873" data-name="Path 11873" d="M77.843,78.655a.4.4,0,0,1,.3.123.4.4,0,0,1,.12.3.42.42,0,0,1-.839,0,.4.4,0,0,1,.123-.3A.4.4,0,0,1,77.843,78.655Z" transform="translate(-77.425 -78.655)" fill="#49484a"/>
      </g>
      <g id="Group_16841" data-name="Group 16841" transform="translate(152.383 4.498)">
        <path id="Path_11874" data-name="Path 11874" d="M78.025,80.7V80.53a1.219,1.219,0,0,0,.6-.4.9.9,0,0,0,.214-.575.2.2,0,0,0-.033-.12.077.077,0,0,0-.054-.033.535.535,0,0,0-.181.075.3.3,0,0,1-.144.033.4.4,0,0,1-.295-.108.445.445,0,0,1,.033-.623.492.492,0,0,1,.346-.132.581.581,0,0,1,.445.22.834.834,0,0,1,.2.578,1.132,1.132,0,0,1-.271.725A1.812,1.812,0,0,1,78.025,80.7Z" transform="translate(-78.025 -78.647)" fill="#49484a"/>
      </g>
      <g id="Group_16842" data-name="Group 16842" transform="translate(154.062 0.117)">
        <path id="Path_11875" data-name="Path 11875" d="M82.876,80.91l.126.027-.439,1.393h-3.98v-.138h.2a.522.522,0,0,0,.466-.214,1.263,1.263,0,0,0,.078-.563V78.1a1.079,1.079,0,0,0-.105-.6.559.559,0,0,0-.439-.165h-.2v-.141h2.329v.141a1.39,1.39,0,0,0-.575.075.456.456,0,0,0-.226.2,1.685,1.685,0,0,0-.06.578v3.228a1.08,1.08,0,0,0,.06.433.262.262,0,0,0,.141.117,2.318,2.318,0,0,0,.59.039h.376a2.754,2.754,0,0,0,.83-.087,1.084,1.084,0,0,0,.436-.31A2.511,2.511,0,0,0,82.876,80.91Z" transform="translate(-78.583 -77.191)" fill="#49484a"/>
      </g>
      <g id="Group_16843" data-name="Group 16843" transform="translate(158.172 0.117)">
        <path id="Path_11876" data-name="Path 11876" d="M84.2,77.191,84.26,78.4h-.144A1.564,1.564,0,0,0,84,77.94a.789.789,0,0,0-.313-.322,1.108,1.108,0,0,0-.514-.105h-.725v3.926a1.076,1.076,0,0,0,.1.593.574.574,0,0,0,.445.159h.178v.138H81v-.138h.181a.522.522,0,0,0,.463-.2,1.177,1.177,0,0,0,.081-.554V77.513h-.617a1.69,1.69,0,0,0-.511.054.7.7,0,0,0-.337.277,1.087,1.087,0,0,0-.165.554h-.144l.06-1.206Z" transform="translate(-79.949 -77.191)" fill="#49484a"/>
      </g>
      <g id="Group_16844" data-name="Group 16844" transform="translate(162.808 0.117)">
        <path id="Path_11877" data-name="Path 11877" d="M81.49,82.33v-.138h.2a.509.509,0,0,0,.46-.211,1.157,1.157,0,0,0,.084-.56V78.1a1.079,1.079,0,0,0-.105-.6.559.559,0,0,0-.439-.165h-.2v-.141h2.094a4.556,4.556,0,0,1,1.751.262,2.091,2.091,0,0,1,.966.872,2.684,2.684,0,0,1,.367,1.408,2.561,2.561,0,0,1-.653,1.793,2.866,2.866,0,0,1-2.226.8Zm1.468-.37a3.977,3.977,0,0,0,.806.105,1.912,1.912,0,0,0,1.459-.617,2.713,2.713,0,0,0,0-3.355,1.953,1.953,0,0,0-1.489-.614,3.259,3.259,0,0,0-.776.108Z" transform="translate(-81.49 -77.191)" fill="#49484a"/>
      </g>
    </g>
    <g id="Group_16846" data-name="Group 16846" transform="translate(544.919 351.084)">
      <path id="Path_11878" data-name="Path 11878" d="M83.276,79.042a.4.4,0,0,1,.4-.424.425.425,0,1,1-.4.424Z" transform="translate(-83.276 -78.618)" fill="#49484a"/>
    </g>
  </g>
</svg>
