<svg xmlns="http://www.w3.org/2000/svg" width="48" height="48" viewBox="0 0 48 48">
  <g id="Ellipse_2839" data-name="Ellipse 2839" fill="none" stroke="#fff" stroke-width="3">
    <circle cx="24" cy="24" r="24" stroke="none"/>
    <circle cx="24" cy="24" r="22.5" fill="none"/>
  </g>
  <path id="Path_11742" data-name="Path 11742" d="M-3053.718,2478.868a16.867,16.867,0,0,1,9.454,2.85,11.525,11.525,0,0,1,5.025,6.981,9.426,9.426,0,0,1-1.028,7.006,17.714,17.714,0,0,1-3.871,4.547,52.781,52.781,0,0,1-9.232,6.484,4.826,4.826,0,0,1-1.005.386c-.509.146-.786-.07-.744-.6.049-.61.151-1.216.231-1.824.182-1.388-.272-1.783-1.676-2a15.888,15.888,0,0,1-7.989-3.5,10.992,10.992,0,0,1-3.876-6.264,9.864,9.864,0,0,1,1.68-7.886,13.864,13.864,0,0,1,6.533-4.984A18.31,18.31,0,0,1-3053.718,2478.868Zm2.723,12.825-.085.021q-1.462-1.949-2.924-3.9a.829.829,0,0,0-.9-.4.855.855,0,0,0-.568.837q-.008,2.892,0,5.784a.822.822,0,0,0,.83.825.754.754,0,0,0,.753-.832c0-1.074,0-2.148,0-3.222,0-.1.009-.2.018-.365.074.085.1.117.131.152q1.4,1.931,2.8,3.861a.727.727,0,0,0,.859.362.767.767,0,0,0,.6-.866q0-2.151,0-4.3c0-.47,0-.94,0-1.411a.777.777,0,0,0-.764-.834.74.74,0,0,0-.756.822c0,.266,0,.531,0,.8Q-3051,2490.362-3051,2491.694Zm4.134-2.761c.713,0,1.386,0,2.059,0,.539,0,.841-.279.844-.766a.748.748,0,0,0-.829-.753q-1.411-.012-2.822,0a.715.715,0,0,0-.777.76q-.007,2.967,0,5.935a.708.708,0,0,0,.744.757c.977.013,1.954.016,2.93,0a.739.739,0,0,0,.75-.832.775.775,0,0,0-.8-.754c-.694,0-1.389,0-2.086,0v-1.357c.737,0,1.448.017,2.156-.006a.741.741,0,0,0,.73-.817.717.717,0,0,0-.757-.742c-.346-.015-.694-.007-1.041-.008-.365,0-.73,0-1.1,0Zm-14.91,4.341v-.394c0-1.553,0-3.108-.006-4.661a.75.75,0,0,0-.777-.809.8.8,0,0,0-.81.8q-.012,2.906,0,5.811a.812.812,0,0,0,.844.843q1.427.014,2.855,0a.763.763,0,0,0,.827-.8.815.815,0,0,0-.853-.79C-3060.365,2493.271-3061.039,2493.273-3061.771,2493.273Zm5.216-2.124h0c0-1,.008-2,0-3a.741.741,0,0,0-.909-.72.8.8,0,0,0-.67.859q-.01,2.87,0,5.741a.83.83,0,0,0,.817.839.768.768,0,0,0,.765-.859C-3056.552,2493.055-3056.555,2492.1-3056.555,2491.149Z" transform="translate(3077.65 -2468.868)" fill="#fff"/>
</svg>
