<svg xmlns="http://www.w3.org/2000/svg" width="66.468" height="88.647" viewBox="0 0 66.468 88.647">
  <g id="Group_16869" data-name="Group 16869" transform="translate(2920.763 -2105.207)">
    <path id="Path_11887" data-name="Path 11887" d="M-2887.522,2105.207a33.153,33.153,0,0,1,31.826,23.841c3,10.543,1.155,20.3-5.25,29.238-7.995,11.161-15.889,22.392-23.826,33.593-.017.023-.031.049-.047.072-1.768,2.53-3.7,2.535-5.461.032q-4.056-5.75-8.132-11.487c-5.458-7.7-10.954-15.378-16.364-23.114-3.942-5.638-6.276-11.868-5.957-18.833.555-12.077,5.571-21.75,15.835-28.445A32.412,32.412,0,0,1-2887.522,2105.207Zm-.072,56.382a23.484,23.484,0,0,0,23.523-23.31,23.508,23.508,0,0,0-23.3-23.631,23.5,23.5,0,0,0-23.651,23.365A23.478,23.478,0,0,0-2887.594,2161.589Z" transform="translate(0 0)" fill="#ff5a5a"/>
    <g id="Group_16868" data-name="Group 16868" transform="translate(-2901.363 2122.108)">
      <path id="Path_11888" data-name="Path 11888" d="M-2794.676,2232.74q-5.785,0-11.57,0c-1.253,0-2.06-.55-2.2-1.484-.141-.951.364-1.552,1.554-2.048.218-.091.388-.566.39-.865.025-4.145.017-8.29.017-12.435q0-5.268,0-10.535c0-1.7.652-2.339,2.352-2.339q9.5,0,19,0c1.7,0,2.35.643,2.351,2.34q.006,11.442,0,22.883c0,.554,0,.939.735,1.076a1.682,1.682,0,0,1,1.232,1.923,1.818,1.818,0,0,1-1.853,1.478C-2786.674,2232.745-2790.675,2232.739-2794.676,2232.74Zm8.308-3.564v-22.582h-16.5v22.553h3.452c0-2-.011-3.922,0-5.847a1.874,1.874,0,0,1,2.109-2.138q2.719-.012,5.44,0a1.822,1.822,0,0,1,2.017,1.964c.031,1.7.007,3.4.012,5.095,0,.3.029.609.046.954Zm-9.436-4.458v4.434h2.343v-4.477c-.528,0-.982,0-1.435,0C-2795.177,2224.68-2795.459,2224.7-2795.8,2224.717Z" transform="translate(2808.468 -2203.033)" fill="#ff5a5a"/>
      <path id="Path_11889" data-name="Path 11889" d="M-2769.669,2241.44c-.69,0-1.381.026-2.07-.006a1.7,1.7,0,0,1-1.705-1.614,1.713,1.713,0,0,1,1.577-1.833,43.414,43.414,0,0,1,4.4.008,1.67,1.67,0,0,1,1.525,1.78,1.688,1.688,0,0,1-1.653,1.654c-.687.038-1.38.008-2.069.008Z" transform="translate(2779.498 -2231.906)" fill="#ff5a5a"/>
      <path id="Path_11890" data-name="Path 11890" d="M-2723.021,2241.437c-.661,0-1.323.024-1.983-.005a1.7,1.7,0,0,1-1.725-1.585,1.676,1.676,0,0,1,1.531-1.856,42.177,42.177,0,0,1,4.4,0,1.709,1.709,0,0,1,1.565,1.84,1.706,1.706,0,0,1-1.714,1.6C-2721.64,2241.462-2722.331,2241.437-2723.021,2241.437Z" transform="translate(2740.854 -2231.902)" fill="#ff5a5a"/>
      <path id="Path_11891" data-name="Path 11891" d="M-2769.692,2273.521c-.662,0-1.324.025-1.983-.007a1.728,1.728,0,0,1-1.77-1.644,1.726,1.726,0,0,1,1.6-1.82,40.536,40.536,0,0,1,4.31,0,1.7,1.7,0,0,1,1.587,1.819,1.707,1.707,0,0,1-1.76,1.644C-2768.368,2273.547-2769.031,2273.521-2769.692,2273.521Z" transform="translate(2779.498 -2258.426)" fill="#ff5a5a"/>
      <path id="Path_11892" data-name="Path 11892" d="M-2723.039,2273.53c-.662,0-1.324.03-1.983-.006a1.693,1.693,0,0,1-1.708-1.6,1.687,1.687,0,0,1,1.549-1.847,37.6,37.6,0,0,1,4.4,0,1.711,1.711,0,0,1,1.55,1.858,1.747,1.747,0,0,1-1.732,1.6c-.057,0-.115.01-.172.01h-1.9Z" transform="translate(2740.854 -2258.44)" fill="#ff5a5a"/>
    </g>
  </g>
</svg>
