<svg id="Component_2_1" data-name="Component 2 – 1" xmlns="http://www.w3.org/2000/svg" width="103.009" height="103.72" viewBox="0 0 103.009 103.72">
  <path id="Union_2" data-name="Union 2" d="M46.445,98.275v-7.52a5.449,5.449,0,0,1,10.9,0v7.52a5.449,5.449,0,0,1-10.9,0ZM79.657,88.68l-5.449-5.445a5.319,5.319,0,0,1,7.525-7.52l5.449,5.446a5.319,5.319,0,0,1-7.525,7.519ZM13.493,86.606a5.318,5.318,0,0,1,0-7.52l5.449-5.445a5.319,5.319,0,0,1,7.525,7.52l-5.449,5.445a5.327,5.327,0,0,1-7.525,0ZM23.872,51.082a28.023,28.023,0,1,1,28.023,28A28.062,28.062,0,0,1,23.872,51.082Zm11.416-.259a16.606,16.606,0,1,0,16.607-16.6A16.55,16.55,0,0,0,35.288,50.823Zm54.748,6.223a5.445,5.445,0,1,1,0-10.89h7.525a5.445,5.445,0,1,1,0,10.89ZM5.449,56.786a5.445,5.445,0,1,1,0-10.89h7.525a5.445,5.445,0,1,1,0,10.89ZM19.979,27.745,14.531,22.3a5.319,5.319,0,1,1,7.525-7.52L27.5,20.225a5.319,5.319,0,0,1-7.525,7.52Zm55.007-.518a5.318,5.318,0,0,1,0-7.52l5.449-5.445a5.319,5.319,0,0,1,7.525,7.52l-5.449,5.445a6,6,0,0,1-3.957,1.556A4.672,4.672,0,0,1,74.987,27.227ZM45.926,12.965V5.445A5.479,5.479,0,0,1,51.375,0a5.319,5.319,0,0,1,5.449,5.445v7.52a5.479,5.479,0,0,1-5.449,5.445A5.658,5.658,0,0,1,45.926,12.965Z" fill="#ffa726"/>
</svg>
