<svg xmlns="http://www.w3.org/2000/svg" width="28.659" height="36.848" viewBox="0 0 28.659 36.848">
  <g id="Icon_delete" transform="translate(0 0)">
    <path id="Path" d="M20.471,0a2.047,2.047,0,0,1,2.047,2.047h4.094a2.047,2.047,0,1,1,0,4.094H2.047a2.047,2.047,0,1,1,0-4.094H6.141A2.047,2.047,0,0,1,8.188,0Z" transform="translate(0 0)" fill="#fff"/>
    <path id="Shape" d="M20.47,28.66H4.094A4.1,4.1,0,0,1,0,24.564V0H24.564V24.564A4.1,4.1,0,0,1,20.47,28.66ZM17.4,4.094a1.025,1.025,0,0,0-1.023,1.024V23.542a1.023,1.023,0,0,0,2.047,0V5.118A1.026,1.026,0,0,0,17.4,4.094Zm-10.234,0A1.026,1.026,0,0,0,6.141,5.118V23.542a1.023,1.023,0,0,0,2.047,0V5.118A1.025,1.025,0,0,0,7.165,4.094Z" transform="translate(2.047 8.188)" fill="#fff"/>
  </g>
</svg>
