<svg xmlns="http://www.w3.org/2000/svg" width="226.018" height="172.225" viewBox="0 0 226.018 172.225">
  <g id="Group_16791" data-name="Group 16791" transform="translate(-786.859 -483.591)">
    <g id="Group_2116" data-name="Group 2116" transform="matrix(0.995, -0.105, 0.105, 0.995, 859.128, 524.335)">
      <path id="trashcan" d="M13.993,111.945a20.993,20.993,0,0,0,20.99,20.99h69.965a21,21,0,0,0,20.99-20.99L139.931,0H0ZM90.955,20.99h13.993v90.955H90.955Zm-27.986,0H76.962v90.955H62.969Zm-27.986,0H48.976v90.955H34.983Z" transform="matrix(0.995, 0.105, -0.105, 0.995, 13.895, 0)" fill="#fff"/>
    </g>
    <g id="Group_2117" data-name="Group 2117" transform="translate(785.852 644.465) rotate(-74)">
      <path id="trashcan-2" data-name="trashcan" d="M143.429,13.993H97.952S94.817,0,90.955,0H62.969c-3.869,0-7,13.993-7,13.993H10.495A10.49,10.49,0,0,0,0,24.488c0,5.8,0,10.495,0,10.495H153.924V24.488A10.494,10.494,0,0,0,143.429,13.993Z" transform="matrix(0.995, 0.105, -0.105, 0.995, 3.657, 0)" fill="#fff"/>
    </g>
    <path id="chat" d="M59.968,40.059V9.433a5.484,5.484,0,0,0-5.484-5.484h-48A5.482,5.482,0,0,0,1,9.433V40.059a5.484,5.484,0,0,0,5.484,5.484h9.146v12.6l13.99-12.6H54.481A5.483,5.483,0,0,0,59.968,40.059ZM69.1,15.989H62.236V42.745c0,2.3-2.982,5.254-5.28,5.254s-26.844.135-26.844.135C30.112,51.162,32.567,53,35.6,53H46.164L59.953,65.517,59.936,53H69.1c3.031,0,5.484-1.842,5.484-4.871V21.321A5.356,5.356,0,0,0,69.1,15.989Z" transform="translate(898.843 481.642)" fill="none" stroke="#fff" stroke-width="4"/>
  </g>
</svg>
