<svg xmlns="http://www.w3.org/2000/svg" width="29.062" height="29" viewBox="0 0 29.062 29">
  <g id="Group_16168" data-name="Group 16168" transform="translate(-340 -333.215)">
    <path id="Path_3693" data-name="Path 3693" d="M2343.256,4509.084q-5.157,0-10.315,0a3.455,3.455,0,0,1-2.386-.686,4.933,4.933,0,0,1-1.767-3.695,18.278,18.278,0,0,1,.209-4.825c.583-2.844,2.688-5.057,4.923-5.066,6.251-.026,12.5-.042,18.754.014,1.873.018,3.271,1.323,4.26,3.374.962,1.991.907,4.21.783,6.434-.124,2.2-1.07,3.578-2.619,4.233a4.093,4.093,0,0,1-1.574.21C2350.1,4509.093,2346.678,4509.084,2343.256,4509.084Z" transform="translate(-1988.724 -4146.871)" fill="#fff"/>
    <path id="Path_3695" data-name="Path 3695" d="M2422.106,4338.1a6.324,6.324,0,1,1-6.052,6.476A6.249,6.249,0,0,1,2422.106,4338.1Z" transform="translate(-2067.858 -4004.872)" fill="#fff"/>
  </g>
</svg>
